<?xml version="1.0" encoding="utf-8"?>
<!-- Generator: Adobe Illustrator 16.0.0, SVG Export Plug-In . SVG Version: 6.00 Build 0)  -->
<!DOCTYPE svg PUBLIC "-//W3C//DTD SVG 1.1//EN" "http://www.w3.org/Graphics/SVG/1.1/DTD/svg11.dtd" [
	<!ENTITY ns_extend "http://ns.adobe.com/Extensibility/1.0/">
	<!ENTITY ns_ai "http://ns.adobe.com/AdobeIllustrator/10.0/">
	<!ENTITY ns_graphs "http://ns.adobe.com/Graphs/1.0/">
	<!ENTITY ns_vars "http://ns.adobe.com/Variables/1.0/">
	<!ENTITY ns_imrep "http://ns.adobe.com/ImageReplacement/1.0/">
	<!ENTITY ns_sfw "http://ns.adobe.com/SaveForWeb/1.0/">
	<!ENTITY ns_custom "http://ns.adobe.com/GenericCustomNamespace/1.0/">
	<!ENTITY ns_adobe_xpath "http://ns.adobe.com/XPath/1.0/">
]>
<svg version="1.1" id="Layer_1" xmlns:x="&ns_extend;" xmlns:i="&ns_ai;" xmlns:graph="&ns_graphs;"
	 xmlns="http://www.w3.org/2000/svg" xmlns:xlink="http://www.w3.org/1999/xlink" x="0px" y="0px" width="2160px" height="2160px"
	 viewBox="0 0 2160 2160" enable-background="new 0 0 2160 2160" xml:space="preserve">
<metadata>
	<sfw  xmlns="&ns_sfw;">
		<slices></slices>
		<sliceSourceBounds  height="633.512" width="1889.705" x="135.147" y="-1396.756" bottomLeftOrigin="true"></sliceSourceBounds>
	</sfw>
</metadata>
<g>
	<g>
		<g>
			<path d="M235.17,1384.65c-48.479,0-87.917-38.013-87.917-84.737V860.087c0-46.725,39.438-84.737,87.917-84.737h1689.66
				c48.477,0,87.917,38.012,87.917,84.737v439.826c0,46.725-39.44,84.737-87.917,84.737H235.17z"/>
		</g>
		<g>
			<path fill="#5E5F5F" d="M1924.83,787.455c41.864,0,75.812,32.517,75.812,72.632v439.826c0,40.11-33.947,72.632-75.812,72.632
				H235.17c-41.868,0-75.812-32.521-75.812-72.632V860.087c0-40.115,33.943-72.632,75.812-72.632H1924.83 M1924.83,763.244H235.17
				c-55.151,0-100.022,43.444-100.022,96.843v439.826c0,53.397,44.871,96.843,100.022,96.843h1689.66
				c55.151,0,100.022-43.445,100.022-96.843V860.087C2024.853,806.688,1979.981,763.244,1924.83,763.244L1924.83,763.244z"/>
		</g>
	</g>
	<g>
		<path d="M2000.642,1299.913c0,40.11-33.947,72.632-75.812,72.632H235.17c-41.868,0-75.812-32.521-75.812-72.632V860.087
			c0-40.115,33.943-72.632,75.812-72.632h1689.66c41.864,0,75.812,32.517,75.812,72.632V1299.913z"/>
		<path fill="#FFFFFF" d="M1924.83,1376.58H235.17c-44.027,0-79.847-34.393-79.847-76.667V860.087
			c0-42.274,35.819-76.667,79.847-76.667h1689.66c44.027,0,79.847,34.393,79.847,76.667v439.826
			C2004.677,1342.188,1968.857,1376.58,1924.83,1376.58z M235.17,791.49c-39.578,0-71.776,30.772-71.776,68.597v439.826
			c0,37.825,32.198,68.597,71.776,68.597h1689.66c39.579,0,71.776-30.771,71.776-68.597V860.087
			c0-37.825-32.197-68.597-71.776-68.597H235.17z"/>
	</g>
	<g>
		<g>
			<g>
				<rect x="1401.418" y="1036.752" fill="#6BBD45" width="39.787" height="25.294"/>
				<rect x="1401.418" y="1159.151" fill="#6BBD45" width="39.787" height="25.292"/>
				<rect x="1581.787" y="1036.752" fill="#6BBD45" width="39.787" height="25.292"/>
				<rect x="1446.508" y="1067.353" fill="#6BBD45" width="39.789" height="25.292"/>
				<rect x="1536.695" y="1067.353" fill="#6BBD45" width="39.787" height="25.292"/>
				<rect x="1491.604" y="1097.953" fill="#6BBD45" width="39.785" height="25.292"/>
				<rect x="1446.508" y="1128.551" fill="#6BBD45" width="39.789" height="25.293"/>
				<rect x="1536.695" y="1128.551" fill="#6BBD45" width="39.787" height="25.293"/>
				<rect x="1581.787" y="1159.151" fill="#6BBD45" width="39.787" height="25.292"/>
			</g>
			<g>
				<rect x="277.59" y="975.556" fill="#6BBD45" width="39.787" height="25.292"/>
				<rect x="322.685" y="1006.154" fill="#6BBD45" width="39.784" height="25.292"/>
				<rect x="367.777" y="1036.754" fill="#6BBD45" width="39.784" height="25.292"/>
				<rect x="412.869" y="1067.353" fill="#6BBD45" width="39.787" height="25.292"/>
				<rect x="367.777" y="1097.951" fill="#6BBD45" width="39.784" height="25.292"/>
				<rect x="322.685" y="1128.551" fill="#6BBD45" width="39.784" height="25.293"/>
				<rect x="277.59" y="1159.149" fill="#6BBD45" width="39.787" height="25.294"/>
			</g>
			<g>
				<rect x="493.338" y="975.554" fill="#6BBD45" width="39.783" height="25.292"/>
				<rect x="538.429" y="975.554" fill="#6BBD45" width="39.788" height="25.292"/>
				<rect x="583.521" y="975.554" fill="#6BBD45" width="39.788" height="25.292"/>
				<rect x="628.617" y="975.554" fill="#6BBD45" width="39.783" height="25.292"/>
				<rect x="493.338" y="1006.154" fill="#6BBD45" width="39.783" height="25.292"/>
				<rect x="493.338" y="1036.752" fill="#6BBD45" width="39.783" height="25.294"/>
				<rect x="493.338" y="1067.353" fill="#6BBD45" width="39.783" height="25.292"/>
				<rect x="493.338" y="1097.953" fill="#6BBD45" width="39.783" height="25.292"/>
				<rect x="493.338" y="1128.551" fill="#6BBD45" width="39.783" height="25.293"/>
				<rect x="493.338" y="1159.151" fill="#6BBD45" width="39.783" height="25.292"/>
				<rect x="538.429" y="1159.151" fill="#6BBD45" width="39.788" height="25.292"/>
				<rect x="583.521" y="1159.151" fill="#6BBD45" width="39.788" height="25.292"/>
				<rect x="628.617" y="1159.151" fill="#6BBD45" width="39.783" height="25.292"/>
				<rect x="673.708" y="1006.154" fill="#6BBD45" width="39.788" height="25.292"/>
				<rect x="673.708" y="1036.752" fill="#6BBD45" width="39.788" height="25.294"/>
				<rect x="673.708" y="1067.353" fill="#6BBD45" width="39.788" height="25.292"/>
				<rect x="673.708" y="1097.953" fill="#6BBD45" width="39.788" height="25.292"/>
				<rect x="673.708" y="1128.551" fill="#6BBD45" width="39.788" height="25.293"/>
			</g>
			<g>
				<rect x="969.925" y="1067.353" fill="#6BBD45" width="39.783" height="25.292"/>
				<rect x="1060.109" y="1067.353" fill="#6BBD45" width="39.788" height="25.292"/>
				<rect x="969.925" y="1097.953" fill="#6BBD45" width="39.783" height="25.292"/>
				<rect x="1060.109" y="1097.953" fill="#6BBD45" width="39.788" height="25.292"/>
				<rect x="969.925" y="1128.551" fill="#6BBD45" width="39.783" height="25.293"/>
				<rect x="1060.109" y="1128.551" fill="#6BBD45" width="39.788" height="25.293"/>
				<rect x="1015.017" y="1159.151" fill="#6BBD45" width="39.787" height="25.292"/>
			</g>
			<g>
				<rect x="754.177" y="1067.353" fill="#6BBD45" width="39.787" height="25.292"/>
				<rect x="754.177" y="1097.953" fill="#6BBD45" width="39.787" height="25.292"/>
				<rect x="754.177" y="1128.551" fill="#6BBD45" width="39.787" height="25.293"/>
				<rect x="799.269" y="1159.151" fill="#6BBD45" width="39.787" height="25.292"/>
				<rect x="844.365" y="1159.151" fill="#6BBD45" width="39.783" height="25.292"/>
				<rect x="889.456" y="1159.151" fill="#6BBD45" width="39.788" height="25.292"/>
				<rect x="799.269" y="1036.752" fill="#6BBD45" width="39.787" height="25.292"/>
				<rect x="844.365" y="1036.752" fill="#6BBD45" width="39.783" height="25.292"/>
				<rect x="889.456" y="1067.353" fill="#6BBD45" width="39.788" height="25.292"/>
				<rect x="799.269" y="1097.953" fill="#6BBD45" width="39.787" height="25.292"/>
				<rect x="844.365" y="1097.953" fill="#6BBD45" width="39.783" height="25.292"/>
			</g>
			<g>
				<rect x="1662.256" y="1159.151" fill="#6BBD45" width="39.785" height="25.292"/>
				<rect x="1707.35" y="1159.151" fill="#6BBD45" width="39.783" height="25.292"/>
				<rect x="1752.441" y="1159.151" fill="#6BBD45" width="39.785" height="25.292"/>
				<rect x="1797.529" y="1159.151" fill="#6BBD45" width="39.789" height="25.292"/>
				<rect x="1842.625" y="1159.151" fill="#6BBD45" width="39.785" height="25.292"/>
			</g>
			<g>
				<rect x="1140.578" y="975.555" fill="#6BBD45" width="39.783" height="25.292"/>
				<rect x="1185.67" y="975.555" fill="#6BBD45" width="39.787" height="25.292"/>
				<rect x="1230.762" y="975.555" fill="#6BBD45" width="39.787" height="25.292"/>
				<rect x="1275.855" y="975.555" fill="#6BBD45" width="39.785" height="25.292"/>
				<rect x="1140.578" y="1006.155" fill="#6BBD45" width="39.783" height="25.292"/>
				<rect x="1140.578" y="1036.753" fill="#6BBD45" width="39.783" height="25.294"/>
				<rect x="1140.578" y="1067.353" fill="#6BBD45" width="39.783" height="25.292"/>
				<rect x="1185.67" y="1067.353" fill="#6BBD45" width="39.787" height="25.292"/>
				<rect x="1230.762" y="1067.353" fill="#6BBD45" width="39.787" height="25.292"/>
				<rect x="1275.855" y="1067.353" fill="#6BBD45" width="39.785" height="25.292"/>
				<rect x="1140.578" y="1097.953" fill="#6BBD45" width="39.783" height="25.293"/>
				<rect x="1140.578" y="1128.552" fill="#6BBD45" width="39.783" height="25.292"/>
				<rect x="1140.578" y="1159.152" fill="#6BBD45" width="39.783" height="25.292"/>
				<rect x="1185.67" y="1159.152" fill="#6BBD45" width="39.787" height="25.292"/>
				<rect x="1230.762" y="1159.152" fill="#6BBD45" width="39.787" height="25.292"/>
				<rect x="1275.855" y="1159.152" fill="#6BBD45" width="39.785" height="25.292"/>
				<rect x="1320.947" y="975.555" fill="#6BBD45" width="39.785" height="25.292"/>
				<rect x="1320.947" y="1159.152" fill="#6BBD45" width="39.785" height="25.292"/>
			</g>
		</g>
	</g>
</g>
</svg>
